<svg width="17" height="15" viewBox="0 0 17 15" fill="none" xmlns="http://www.w3.org/2000/svg">
<path d="M6.71681 6.79375C6.64994 6.7875 6.5697 6.7875 6.49614 6.79375C4.90468 6.74375 3.64087 5.525 3.64087 4.025C3.64087 2.49375 4.96486 1.25 6.60982 1.25C8.24809 1.25 9.57877 2.49375 9.57877 4.025C9.57209 5.525 8.30828 6.74375 6.71681 6.79375Z" stroke="white" stroke-width="1.5" stroke-linecap="round" stroke-linejoin="round"/>
<path d="M11.565 2.5C12.8622 2.5 13.9053 3.48125 13.9053 4.6875C13.9053 5.86875 12.9023 6.83125 11.6519 6.875C11.5984 6.86875 11.5382 6.86875 11.478 6.875" stroke="white" stroke-width="1.5" stroke-linecap="round" stroke-linejoin="round"/>
<path d="M3.37357 9.1C1.75536 10.1125 1.75536 11.7625 3.37357 12.7688C5.21245 13.9188 8.22821 13.9188 10.0671 12.7688C11.6853 11.7563 11.6853 10.1063 10.0671 9.1C8.2349 7.95625 5.21914 7.95625 3.37357 9.1Z" stroke="white" stroke-width="1.5" stroke-linecap="round" stroke-linejoin="round"/>
<path d="M12.8555 12.5C13.3369 12.4062 13.7916 12.225 14.1661 11.9562C15.2092 11.225 15.2092 10.0187 14.1661 9.2875C13.7983 9.025 13.3503 8.85 12.8755 8.75" stroke="white" stroke-width="1.5" stroke-linecap="round" stroke-linejoin="round"/>
</svg>
