<svg width="149" height="24" viewBox="0 0 149 24" fill="none" xmlns="http://www.w3.org/2000/svg">
<path d="M15.2741 23L7.71406 12.77H4.68406L13.8641 1.1H19.5041L11.2541 11.57L11.1941 9.44L21.2141 23H15.2741ZM0.874063 23V1.1H5.79406V23H0.874063ZM23.4327 23V1.1H28.2327V23H23.4327ZM27.6327 23V18.92H37.2027V23H27.6327ZM27.6327 13.91V9.83H36.5127V13.91H27.6327ZM27.6327 5.18V1.1H36.9927V5.18H27.6327ZM45.3852 14.69L38.9952 1.1H44.0352L48.6252 11.27L47.7552 11H50.2752L49.3452 11.27L53.4852 1.1H58.2552L52.3752 14.69H45.3852ZM46.4652 23V14H51.2952V23H46.4652ZM60.962 23V1.1H65.882V23H60.962ZM65.282 14.18V10.1H73.742V14.18H65.282ZM65.282 5.18V1.1H74.102V5.18H65.282ZM88.1905 23.57C86.2105 23.57 84.4805 23.23 83.0005 22.55C81.5405 21.85 80.3305 20.94 79.3705 19.82C78.4105 18.68 77.6905 17.45 77.2105 16.13C76.7505 14.81 76.5205 13.54 76.5205 12.32V11.66C76.5205 10.3 76.7605 8.96 77.2405 7.64C77.7405 6.3 78.4805 5.09 79.4605 4.01C80.4405 2.93 81.6605 2.07 83.1205 1.43C84.5805 0.769999 86.2705 0.439999 88.1905 0.439999C90.1105 0.439999 91.8005 0.769999 93.2605 1.43C94.7205 2.07 95.9405 2.93 96.9205 4.01C97.9005 5.09 98.6405 6.3 99.1405 7.64C99.6405 8.96 99.8905 10.3 99.8905 11.66V12.32C99.8905 13.54 99.6505 14.81 99.1705 16.13C98.6905 17.45 97.9705 18.68 97.0105 19.82C96.0505 20.94 94.8305 21.85 93.3505 22.55C91.8905 23.23 90.1705 23.57 88.1905 23.57ZM88.1905 18.98C89.2305 18.98 90.1605 18.8 90.9805 18.44C91.8205 18.08 92.5305 17.58 93.1105 16.94C93.7105 16.3 94.1605 15.56 94.4605 14.72C94.7605 13.88 94.9105 12.98 94.9105 12.02C94.9105 11 94.7505 10.07 94.4305 9.23C94.1305 8.37 93.6805 7.63 93.0805 7.01C92.5005 6.37 91.8005 5.88 90.9805 5.54C90.1605 5.2 89.2305 5.03 88.1905 5.03C87.1505 5.03 86.2205 5.2 85.4005 5.54C84.5805 5.88 83.8705 6.37 83.2705 7.01C82.6905 7.63 82.2505 8.37 81.9505 9.23C81.6505 10.07 81.5005 11 81.5005 12.02C81.5005 12.98 81.6505 13.88 81.9505 14.72C82.2505 15.56 82.6905 16.3 83.2705 16.94C83.8705 17.58 84.5805 18.08 85.4005 18.44C86.2205 18.8 87.1505 18.98 88.1905 18.98ZM114.118 23.57C112.138 23.57 110.408 23.23 108.928 22.55C107.468 21.85 106.258 20.94 105.298 19.82C104.338 18.68 103.618 17.45 103.138 16.13C102.678 14.81 102.448 13.54 102.448 12.32V11.66C102.448 10.3 102.688 8.96 103.168 7.64C103.668 6.3 104.408 5.09 105.388 4.01C106.368 2.93 107.588 2.07 109.048 1.43C110.508 0.769999 112.198 0.439999 114.118 0.439999C116.038 0.439999 117.728 0.769999 119.188 1.43C120.648 2.07 121.868 2.93 122.848 4.01C123.828 5.09 124.568 6.3 125.068 7.64C125.568 8.96 125.818 10.3 125.818 11.66V12.32C125.818 13.54 125.578 14.81 125.098 16.13C124.618 17.45 123.898 18.68 122.938 19.82C121.978 20.94 120.758 21.85 119.278 22.55C117.818 23.23 116.098 23.57 114.118 23.57ZM114.118 18.98C115.158 18.98 116.088 18.8 116.908 18.44C117.748 18.08 118.458 17.58 119.038 16.94C119.638 16.3 120.088 15.56 120.388 14.72C120.688 13.88 120.838 12.98 120.838 12.02C120.838 11 120.678 10.07 120.358 9.23C120.058 8.37 119.608 7.63 119.008 7.01C118.428 6.37 117.728 5.88 116.908 5.54C116.088 5.2 115.158 5.03 114.118 5.03C113.078 5.03 112.148 5.2 111.328 5.54C110.508 5.88 109.798 6.37 109.198 7.01C108.618 7.63 108.178 8.37 107.878 9.23C107.578 10.07 107.428 11 107.428 12.02C107.428 12.98 107.578 13.88 107.878 14.72C108.178 15.56 108.618 16.3 109.198 16.94C109.798 17.58 110.508 18.08 111.328 18.44C112.148 18.8 113.078 18.98 114.118 18.98ZM129.546 23V0.919998H134.466V23H129.546ZM142.836 23L136.416 13.58H141.816L148.536 23H142.836ZM133.146 15.98V12.11H138.546C139.266 12.11 139.886 11.97 140.406 11.69C140.946 11.39 141.356 10.98 141.636 10.46C141.936 9.92 142.086 9.3 142.086 8.6C142.086 7.9 141.936 7.29 141.636 6.77C141.356 6.23 140.946 5.82 140.406 5.54C139.886 5.24 139.266 5.09 138.546 5.09H133.146V0.919998H138.156C139.976 0.919998 141.556 1.2 142.896 1.76C144.236 2.3 145.266 3.11 145.986 4.19C146.706 5.27 147.066 6.63 147.066 8.27V8.75C147.066 10.37 146.696 11.72 145.956 12.8C145.236 13.86 144.206 14.66 142.866 15.2C141.546 15.72 139.976 15.98 138.156 15.98H133.146Z" fill="#00DE8E"/>
</svg>
