<svg width="24" height="24" viewBox="0 0 24 24" fill="none" xmlns="http://www.w3.org/2000/svg">
<path d="M10 16.95H6.21C2.84 16.95 2 16.11 2 12.74V6.74003C2 3.37003 2.84 2.53003 6.21 2.53003H16.74C20.11 2.53003 20.95 3.37003 20.95 6.74003" stroke="#00DE8E" stroke-width="1.5" stroke-linecap="round" stroke-linejoin="round"/>
<path d="M10 21.4699V16.95" stroke="#00DE8E" stroke-width="1.5" stroke-linecap="round" stroke-linejoin="round"/>
<path d="M2 12.95H10" stroke="#00DE8E" stroke-width="1.5" stroke-linecap="round" stroke-linejoin="round"/>
<path d="M6.74023 21.47H10.0002" stroke="#00DE8E" stroke-width="1.5" stroke-linecap="round" stroke-linejoin="round"/>
<path d="M21.9993 12.8001V18.5101C21.9993 20.8801 21.4093 21.4701 19.0393 21.4701H15.4893C13.1193 21.4701 12.5293 20.8801 12.5293 18.5101V12.8001C12.5293 10.4301 13.1193 9.84009 15.4893 9.84009H19.0393C21.4093 9.84009 21.9993 10.4301 21.9993 12.8001Z" stroke="#00DE8E" stroke-width="1.5" stroke-linecap="round" stroke-linejoin="round"/>
<path d="M17.2445 18.25H17.2535" stroke="#00DE8E" stroke-width="2" stroke-linecap="round" stroke-linejoin="round"/>
</svg>
