<svg width="30" height="24" viewBox="0 0 30 24" fill="none" xmlns="http://www.w3.org/2000/svg">
<path d="M29.372 2.8394C28.2917 3.32141 27.1313 3.64725 25.9112 3.79372C27.1564 3.04404 28.1103 1.85608 28.5607 0.442203C27.3779 1.14854 26.0834 1.6458 24.7335 1.91238C23.6349 0.73505 22.0684 0 20.3353 0C17.0087 0 14.3107 2.71147 14.3107 6.05814C14.3107 6.53232 14.3639 6.99494 14.466 7.43909C9.45819 7.18605 5.01845 4.77423 2.0467 1.10946C1.52779 2.0045 1.23078 3.04514 1.23078 4.15546C1.23078 6.25699 2.29465 8.1112 3.91118 9.19735C2.95422 9.16753 2.01826 8.90783 1.18154 8.43994V8.51649C1.18154 11.452 3.25819 13.8997 6.01482 14.4564C5.50843 14.5959 4.977 14.6688 4.42721 14.6688C4.0385 14.6688 3.66137 14.6318 3.29296 14.5621C4.05973 16.9682 6.285 18.7195 8.92092 18.769C6.85874 20.3943 4.26031 21.3632 1.43812 21.3632C0.952033 21.3632 0.471622 21.334 0 21.2769C2.66695 22.9963 5.83352 24 9.23637 24C20.3189 24 26.38 14.7687 26.38 6.76324C26.38 6.50042 26.3742 6.23956 26.3616 5.97963C27.5425 5.12084 28.5619 4.0575 29.372 2.8394Z" fill="#2DAAE1"/>
</svg>
