<svg width="24" height="17" viewBox="0 0 24 17" fill="none" xmlns="http://www.w3.org/2000/svg">
<g clip-path="url(#clip0_37_2726)">
<path d="M9.5249 11.5502L16.0124 8.19394L9.5249 4.80957V11.5502Z" fill="white"/>
<path opacity="0.12" d="M9.5249 4.80957L15.2155 8.60645L16.0124 8.19395L9.5249 4.80957Z" fill="#420000"/>
<path d="M23.747 3.6375C23.747 3.6375 23.5127 1.9875 22.7911 1.25625C21.8821 0.3 20.8606 0.3 20.3827 0.24375C17.0371 0 12.0047 0 12.0047 0H11.9953C11.9953 0 6.9629 0 3.59859 0.24375C3.13003 0.3 2.10855 0.3 1.19016 1.25625C0.477938 1.9875 0.243655 3.6375 0.243655 3.6375C0.243655 3.6375 0 5.5875 0 7.52813V9.34687C0 11.2875 0.243655 13.2281 0.243655 13.2281C0.243655 13.2281 0.477938 14.8781 1.19953 15.6094C2.10855 16.5656 3.30808 16.5375 3.84225 16.6312C5.76337 16.8187 11.9953 16.875 11.9953 16.875C11.9953 16.875 17.0371 16.8656 20.392 16.6219C20.8606 16.5656 21.8821 16.5656 22.8005 15.6094C23.5221 14.8781 23.7563 13.2281 23.7563 13.2281C23.7563 13.2281 24 11.2875 24 9.34687V7.52813C23.9906 5.5875 23.747 3.6375 23.747 3.6375ZM9.52128 11.55V4.80937L16.0062 8.19375L9.52128 11.55Z" fill="url(#paint0_linear_37_2726)"/>
</g>
<defs>
<linearGradient id="paint0_linear_37_2726" x1="11.9953" y1="1.6875e-07" x2="11.9953" y2="16.8801" gradientUnits="userSpaceOnUse">
<stop stop-color="#E52D27"/>
<stop offset="1" stop-color="#BF171D"/>
</linearGradient>
<clipPath id="clip0_37_2726">
<rect width="24" height="16.875" fill="white"/>
</clipPath>
</defs>
</svg>
