<svg width="25" height="24" viewBox="0 0 25 24" fill="none" xmlns="http://www.w3.org/2000/svg">
    <path d="M21.4922 5.97998C18.1622 5.64998 14.8122 5.47998 11.4722 5.47998C9.49219 5.47998 7.51219 5.57998 5.53219 5.77998L3.49219 5.97998" stroke="#E52D27" stroke-width="1.5" stroke-linecap="round" stroke-linejoin="round"/>
    <path d="M8.99219 4.97L9.21219 3.66C9.37219 2.71 9.49219 2 11.1822 2H13.8022C15.4922 2 15.6222 2.75 15.7722 3.67L15.9922 4.97" stroke="#E52D27" stroke-width="1.5" stroke-linecap="round" stroke-linejoin="round"/>
    <path d="M19.3426 9.14014L18.6926 19.2101C18.5826 20.7801 18.4926 22.0001 15.7026 22.0001H9.28258C6.49258 22.0001 6.40258 20.7801 6.29258 19.2101L5.64258 9.14014" stroke="#E52D27" stroke-width="1.5" stroke-linecap="round" stroke-linejoin="round"/>
    <path d="M10.8223 16.5H14.1523" stroke="#E52D27" stroke-width="1.5" stroke-linecap="round" stroke-linejoin="round"/>
    <path d="M9.99219 12.5H14.9922" stroke="#E52D27" stroke-width="1.5" stroke-linecap="round" stroke-linejoin="round"/>
    </svg>
    