<svg width="15" height="15" viewBox="0 0 15 15" fill="none" xmlns="http://www.w3.org/2000/svg">
<path d="M11.5625 12.1875H9.0625" stroke="#00DE8E" stroke-width="1.5" stroke-linecap="round" stroke-linejoin="round"/>
<path d="M10.3125 13.4375V10.9375" stroke="#00DE8E" stroke-width="1.5" stroke-linecap="round" stroke-linejoin="round"/>
<path d="M7.60012 6.79375C7.53762 6.7875 7.46262 6.7875 7.39387 6.79375C5.90637 6.74375 4.72512 5.525 4.72512 4.025C4.71887 2.49375 5.96262 1.25 7.49387 1.25C9.02512 1.25 10.2689 2.49375 10.2689 4.025C10.2689 5.525 9.08137 6.74375 7.60012 6.79375Z" stroke="#00DE8E" stroke-width="1.5" stroke-linecap="round" stroke-linejoin="round"/>
<path d="M7.49365 13.6311C6.35615 13.6311 5.2249 13.3436 4.3624 12.7686C2.8499 11.7561 2.8499 10.1061 4.3624 9.0998C6.08115 7.9498 8.8999 7.9498 10.6187 9.0998" stroke="#00DE8E" stroke-width="1.5" stroke-linecap="round" stroke-linejoin="round"/>
</svg>
