<svg width="16" height="15" viewBox="0 0 16 15" fill="none" xmlns="http://www.w3.org/2000/svg">
<path d="M8.74064 2.19365L9.91752 4.39365C10.078 4.6999 10.506 4.99365 10.8671 5.0499L13.0002 5.38115C14.3643 5.59365 14.6852 6.51865 13.7023 7.43115L12.0439 8.98115C11.7631 9.24365 11.6093 9.7499 11.6962 10.1124L12.171 12.0312C12.5454 13.5499 11.6828 14.1374 10.2452 13.3437L8.24582 12.2374C7.88473 12.0374 7.2896 12.0374 6.92182 12.2374L4.92246 13.3437C3.49148 14.1374 2.62219 13.5437 2.99666 12.0312L3.47142 10.1124C3.55835 9.7499 3.40455 9.24365 3.12371 8.98115L1.46537 7.43115C0.489095 6.51865 0.803376 5.59365 2.16749 5.38115L4.30059 5.0499C4.65499 4.99365 5.08295 4.6999 5.24343 4.39365L6.42031 2.19365C7.06225 0.999902 8.10539 0.999902 8.74064 2.19365Z" stroke="#FFF500" stroke-width="1.5" stroke-linecap="round" stroke-linejoin="round"/>
</svg>
